<?xml version="1.0" standalone="no"?>
<!DOCTYPE svg PUBLIC "-//W3C//DTD SVG 20010904//EN"
 "http://www.w3.org/TR/2001/REC-SVG-20010904/DTD/svg10.dtd">
<svg version="1.0" xmlns="http://www.w3.org/2000/svg"
 width="512.000000pt" height="512.000000pt" viewBox="0 0 512.000000 512.000000"
 preserveAspectRatio="xMidYMid meet">
<metadata>
Created by potrace 1.14, written by Peter Selinger 2001-2017
</metadata>
<g transform="translate(0.000000,512.000000) scale(0.100000,-0.100000)"
fill="#000000" stroke="none">
<path d="M974 3698 c-62 -7 -164 -36 -206 -59 -12 -7 -27 -12 -31 -11 -9 3
-22 -27 -15 -34 3 -2 18 1 34 7 50 19 155 13 210 -12 51 -24 174 -139 174
-163 0 -8 4 -16 8 -18 5 -1 24 -33 44 -69 l35 -66 -22 -54 c-12 -30 -34 -80
-48 -112 -15 -32 -27 -60 -27 -63 0 -2 -18 -43 -40 -90 -22 -47 -40 -88 -40
-91 0 -2 -11 -28 -24 -56 -13 -29 -33 -74 -45 -102 -12 -27 -26 -59 -31 -70
-10 -22 -58 -130 -174 -396 -42 -96 -89 -189 -104 -205 -38 -43 -96 -76 -139
-79 -21 -1 -39 -7 -41 -13 -3 -9 63 -12 248 -12 197 0 251 3 247 13 -2 6 -10
11 -16 9 -7 -1 -27 5 -46 14 -38 18 -60 61 -51 101 7 27 67 179 111 278 l22
50 269 -1 c148 -1 272 -2 276 -3 3 -1 18 -34 33 -73 15 -40 30 -82 35 -93 4
-11 14 -36 21 -55 23 -63 110 -234 150 -294 21 -32 39 -60 39 -61 0 -2 10 -15
23 -30 173 -207 328 -308 542 -351 31 -6 176 -5 210 1 75 15 185 53 205 72 11
10 -25 21 -44 13 -34 -13 -156 -4 -211 15 -69 24 -159 86 -227 157 -123 127
-234 328 -371 669 -355 878 -372 917 -462 1053 -138 208 -321 307 -521 284z
m347 -673 c4 -11 31 -83 59 -160 28 -77 55 -149 60 -160 5 -11 17 -40 25 -65
9 -25 24 -68 34 -96 l19 -51 -234 -1 c-129 0 -234 3 -234 8 0 4 7 21 15 36 8
16 15 37 15 47 0 9 5 17 10 17 6 0 9 3 8 8 -2 4 42 114 97 246 85 205 100 235
108 215 5 -13 13 -33 18 -44z"/>
<path d="M2284 3561 c-12 -12 1 -19 44 -25 49 -6 84 -30 114 -77 14 -23 16
-95 16 -712 l1 -686 -22 -32 c-30 -44 -65 -67 -112 -73 -22 -3 -41 -5 -42 -6
-2 0 -3 -4 -3 -10 0 -5 136 -9 356 -10 283 0 355 2 351 12 -2 7 -10 12 -16 10
-42 -9 -161 63 -145 89 2 4 0 10 -6 14 -7 4 -10 238 -10 692 l0 685 22 31 c33
49 59 66 111 73 26 4 47 12 47 18 0 8 -98 11 -351 11 -193 0 -353 -2 -355 -4z"/>
<path d="M3370 3562 c-20 -7 -9 -24 11 -19 32 8 83 -45 73 -75 -3 -13 -61 -95
-127 -183 -253 -336 -372 -490 -379 -493 -4 -2 -8 -9 -8 -15 -1 -7 -14 -28
-30 -46 -17 -19 -26 -37 -22 -40 4 -4 46 -53 93 -111 46 -58 86 -107 89 -110
3 -3 24 -27 45 -55 22 -27 42 -52 46 -55 3 -3 81 -99 174 -215 277 -342 365
-436 506 -537 157 -112 289 -160 444 -161 103 0 170 13 273 55 97 40 96 52 -3
62 -81 9 -199 46 -267 84 -67 38 -113 69 -127 86 -7 9 -18 16 -23 16 -5 0 -53
44 -106 98 -103 104 -104 105 -197 222 -33 41 -65 82 -72 90 -6 8 -34 42 -60
75 -26 33 -52 65 -58 71 -5 7 -19 24 -30 40 -11 15 -25 32 -30 38 -6 6 -76 92
-155 191 -79 99 -146 182 -149 185 -4 3 -18 21 -32 40 -15 19 -36 46 -48 59
-11 13 -21 27 -21 30 0 3 37 49 81 101 45 52 100 117 123 144 22 27 57 68 76
91 19 23 55 66 80 95 131 158 178 194 285 213 36 7 66 16 65 21 0 9 -496 16
-520 8z"/>
</g>
</svg>
